<?xml version="1.0"?>
<svg xmlns="http://www.w3.org/2000/svg" height="512px" viewBox="-30 0 511 511.99985" width="512px" class=""><g><path d="m122.65625 305.976562c5.519531 0 10-4.480468 10-10 0-5.523437-4.480469-10-10-10s-10 4.476563-10 10c0 5.519532 4.480469 10 10 10zm0 0" data-original="#000000" class="active-path" data-old_color="#F8F7F7" fill="#FCFCFC"/><path d="m43.496094 287.957031c28.097656 1.6875 28.628906 5.476563 29.390625 16.628907.023437 23.625 2.519531 48.886718 7.222656 73.074218 4.980469 25.671875 12.199219 49.46875 21.460937 70.730469 18.8125 43.175781 36.21875 63.609375 54.371094 63.609375 21.828125 0 32.917969-26.929688 38.988282-47.84375 5.78125-19.90625 8.84375-42.039062 9.171874-51.398438.464844-13.292968 1.890626-21.488281 8.042969-26.488281 79.0625-54.59375 87.875-79.234375 96.394531-103.0625 4.769532-13.339843 8.886719-24.859375 26.992188-42.960937 1.890625-1.890625 4.4375-2.917969 7.148438-2.882813 3.886718.046875 6.125 1.824219 8.324218 4.34375 12.085938 13.84375 30.089844 31.753907 46.789063 27.457031 6.222656-1.601562 14.375-6.878906 17.878906-22.949218 13.480469-61.910156 24.695313-70.089844 32.882813-76.0625 2.578124-1.882813 4.105468-4.882813 4.105468-8.078125v-23.101563c0-5.523437-4.480468-10-10-10-24.800781 0-49.171875 8.363282-68.632812 23.546875-24.109375 18.816407-34.585938 24.550781-49.042969 10.03125-2.832031-2.851562-7.097656-3.722656-10.824219-2.222656-3.726562 1.5-6.191406 5.085937-6.261718 9.101563-.046876 2.820312-.953126 4.804687-2.929688 6.441406-3.464844 2.863281-9.917969 4.167968-15.6875 3.167968-39.058594-6.75-63.621094-13.964843-75.101562-22.046874-7.253907-5.105469-7.328126-8.917969-7.472657-16.511719-.1875-9.707031-.445312-23.003907-18.34375-35.136719-8.269531-5.601562-7.191406-11.84375.613281-34.027344 4.976563-14.144531 11.167969-31.742187 11.65625-52.457031.082032-3.507813-1.679687-6.800781-4.640624-8.683594-2.964844-1.878906-6.695313-2.066406-9.832032-.496093-15.136718 7.570312-30.925781 5.992187-46.921875-4.691407-9.121093-6.09375-20.84375-6.644531-30.597656-1.429687-9.863281 5.269531-15.886719 15.449218-15.886719 26.558594-.003906 5.035156-.074218 9.570312-.140625 13.957031-.378906 24.707031-.730469 41.03125 16.09375 50.5 2.742188 1.546875 3.164063 5.621093 1.980469 8.511719-10.597656 25.882812-41.003906 51.257812-65.078125 54.296874-2.699219.34375-10.917969 1.386719-15.023437 8.230469-4.140626 6.894531-1.226563 14.566407.519531 19.15625 3.988281 10.484375-.59375 19.085938-13.609375 25.570313-8.105469 4.035156-13.984375 11.265625-16.132813 19.835937-2.054687 8.199219-.40625 16.875 4.519531 23.804688 14.066407 19.769531 20.03125 32.921875 37.613282 33.976562zm-22.726563-52.921875c.722657-2.890625 2.78125-5.363281 5.644531-6.789062 26.425782-13.164063 29.40625-34.761719 23.390626-50.582032-.085938-.226562-.164063-.4375-.238282-.640624 30.964844-4.664063 66.433594-34.113282 79.632813-66.363282 5.21875-12.738281.625-27.144531-10.675781-33.511718-5.824219-3.277344-6.367188-9.53125-6.007813-32.765626.0625-4.253906.140625-9.074218.140625-14.261718 0-3.777344 2.023438-7.113282 5.414062-8.925782 1.578126-.839843 5.710938-2.484374 10.0625.421876 16.492188 11.015624 34.132813 14.898437 51.027344 11.484374-2.003906 11.542969-5.683594 22.011719-9.046875 31.574219-3.835937 10.894531-7.144531 20.304688-7.449219 29.40625-.394531 11.683594 4.476563 21.042969 14.484376 27.816407 9.320312 6.320312 9.40625 10.8125 9.5625 18.96875.179687 9.085937.417968 21.535156 15.957031 32.476562 14.144531 9.960938 40.585937 18.035156 83.207031 25.402344 9.125 1.578125 22.277344.445312 31.84375-7.464844 1.953125-1.617188 3.636719-3.417969 5.042969-5.382812 9.199219 5.113281 18.976562 6.203124 29.207031 3.230468 12.191406-3.539062 23.464844-12.335937 34.363281-20.839844 13.335938-10.40625 29.496094-16.90625 46.328125-18.765624v7.636718c-12.386718 10.21875-23.945312 27.015625-36.53125 84.796875-1.441406 6.621094-3.304687 7.832031-3.3125 7.835938-.058594.015625-7.015625 1.355469-26.746094-21.242188-6.488281-7.429687-14.167968-11.078125-23.152343-11.1875-.121094 0-.246094 0-.371094 0-8.011719 0-15.511719 3.09375-21.15625 8.738281-21.28125 21.277344-26.570313 36.066407-31.683594 50.371094-7.464843 20.875-15.183593 42.460938-89.207031 93.53125-.171875.117188-.339844.242188-.507812.371094-13.683594 10.769531-15.347657 26.496094-15.878907 41.679688-.21875 6.28125-2.636719 26.71875-8.390625 46.527343-6.746094 23.230469-14.367187 32.46875-18.84375 33.324219-1.367187.257812-14.078125 1.035156-36.972656-51.503906-8.675781-19.917969-15.460938-42.3125-20.164062-66.554688-4.484376-23.070312-6.855469-47.140625-6.855469-69.601562 0-.226563-.007813-.453125-.023438-.679688-.640625-9.4375-2.613281-20.019531-12.402343-26.941406-7.210938-5.097656-17.238282-7.519531-35.765626-8.632812-6.289062-.375-8.074218-5.308594-22.507812-25.601563-1.992188-2.800781-1.871094-5.546875-1.417969-7.355469zm0 0" data-original="#000000" class="active-path" data-old_color="#F8F7F7" fill="#FCFCFC"/><path d="m123.5 325.984375c-5.492188.589844-9.464844 5.519531-8.875 11.007813 3.515625 32.765624 11.179688 65.308593 21.019531 89.28125 2.101563 5.109374 7.941407 7.550781 13.050781 5.453124 5.109376-2.097656 7.550782-7.9375 5.453126-13.046874-9.023438-21.972657-16.363282-53.308594-19.640626-83.820313-.585937-5.492187-5.515624-9.46875-11.007812-8.875zm0 0" data-original="#000000" class="active-path" data-old_color="#F8F7F7" fill="#FCFCFC"/></g> </svg>
